<svg xmlns="http://www.w3.org/2000/svg" width="112.5" height="112.174" viewBox="0 0 112.5 112.174">
  <g id="Group_14" data-name="Group 14" transform="translate(-1482.385 -1325)">
    <g id="Group_13" data-name="Group 13" transform="translate(1482.385 1325)">
      <path id="Path_22" data-name="Path 22" d="M513.176,380.366l-6.887-7.025a2.856,2.856,0,0,0-4.039-.04h0a2.857,2.857,0,0,0-.04,4.04l5.974,6.1a2.856,2.856,0,0,0,4.039.04l.931-.913a1.553,1.553,0,0,0,.022-2.2m4.32,1.679,3.851,7.617a2.856,2.856,0,0,0,3.838,1.259h0a2.856,2.856,0,0,0,1.259-3.838l-3.851-7.617a2.856,2.856,0,0,0-3.838-1.261h0A2.856,2.856,0,0,0,517.5,382.045Zm13.2,9.229,1.31,8.434a2.856,2.856,0,0,0,3.26,2.383h0a2.857,2.857,0,0,0,2.384-3.26l-1.311-8.434a2.856,2.856,0,0,0-3.26-2.384h0A2.857,2.857,0,0,0,530.7,391.275Zm14.009,22.258,1.37-8.425a2.856,2.856,0,0,0-2.362-3.277h0a2.855,2.855,0,0,0-3.277,2.361l-1.37,8.425a2.857,2.857,0,0,0,2.361,3.277h0A2.857,2.857,0,0,0,544.709,413.532Zm.937,5.826-4.039,7.521a2.857,2.857,0,0,0,1.165,3.868h0a2.855,2.855,0,0,0,3.868-1.164l4.037-7.521a2.856,2.856,0,0,0-1.165-3.868h0A2.855,2.855,0,0,0,545.646,419.358Zm.323,15.989-6.018,6.053a2.857,2.857,0,0,0,.012,4.04h0a2.856,2.856,0,0,0,4.039-.012l6.017-6.053a2.856,2.856,0,0,0-.012-4.04h0A2.856,2.856,0,0,0,545.97,435.347Zm-9.475,24.514,7.567-3.947a2.857,2.857,0,0,0,1.212-3.853h0a2.856,2.856,0,0,0-3.853-1.211l-7.569,3.949a2.855,2.855,0,0,0-1.21,3.852h0A2.856,2.856,0,0,0,536.495,459.861Zm-4.537,4.241-8.451,1.2a2.856,2.856,0,0,0-2.425,3.23h0a2.856,2.856,0,0,0,3.23,2.425l8.451-1.2a2.857,2.857,0,0,0,2.425-3.23h0A2.856,2.856,0,0,0,531.958,464.1Zm-12.783,9.8-8.442-1.263a2.857,2.857,0,0,0-3.247,2.4h0a2.856,2.856,0,0,0,2.4,3.247l8.442,1.263a2.857,2.857,0,0,0,3.247-2.4h0A2.855,2.855,0,0,0,519.175,473.906Zm-25.432,6.564,7.665,3.757a2.856,2.856,0,0,0,3.821-1.308h0a2.854,2.854,0,0,0-1.307-3.821l-7.664-3.758a2.857,2.857,0,0,0-3.822,1.307h0A2.858,2.858,0,0,0,493.743,480.47Zm-5.826-1.079-5.974-6.1a2.857,2.857,0,0,0-4.04-.04h0a2.856,2.856,0,0,0-.04,4.039l5.976,6.1a2.856,2.856,0,0,0,4.039.04h0A2.856,2.856,0,0,0,487.917,479.391Zm-24.469-9.747,3.851,7.617a2.856,2.856,0,0,0,3.838,1.259h0a2.856,2.856,0,0,0,1.259-3.838l-3.851-7.617a2.856,2.856,0,0,0-3.838-1.261h0A2.856,2.856,0,0,0,463.449,469.644ZM452.238,457.9l1.311,8.434a2.855,2.855,0,0,0,3.26,2.383h0a2.855,2.855,0,0,0,2.383-3.26l-1.31-8.434a2.858,2.858,0,0,0-3.262-2.384h0A2.855,2.855,0,0,0,452.238,457.9Zm-2.783-5.359,1.37-8.425a2.857,2.857,0,0,0-2.361-3.277h0a2.855,2.855,0,0,0-3.277,2.361l-1.37,8.424a2.857,2.857,0,0,0,2.362,3.279h0A2.857,2.857,0,0,0,449.455,452.536ZM442.9,427.258l-4.039,7.521a2.857,2.857,0,0,0,1.165,3.868h0a2.855,2.855,0,0,0,3.868-1.165l4.037-7.519a2.856,2.856,0,0,0-1.165-3.868h0A2.856,2.856,0,0,0,442.9,427.258Zm3.02-16.079-6.017,6.054a2.856,2.856,0,0,0,.012,4.039h0a2.857,2.857,0,0,0,4.04-.012l6.017-6.054a2.857,2.857,0,0,0-.012-4.04h0A2.856,2.856,0,0,0,445.919,411.18Zm2.555-5.3,7.567-3.949a2.856,2.856,0,0,0,1.211-3.853h0a2.857,2.857,0,0,0-3.853-1.212l-7.569,3.949a2.858,2.858,0,0,0-1.211,3.853h0A2.858,2.858,0,0,0,448.474,405.879Zm17-20.172-8.451,1.2a2.856,2.856,0,0,0-2.425,3.23h0a2.857,2.857,0,0,0,3.232,2.425l8.45-1.2a2.855,2.855,0,0,0,2.425-3.23h0A2.857,2.857,0,0,0,465.469,385.707Zm5.2-2.739,8.419,1.412a2.856,2.856,0,0,0,3.288-2.345h0a2.856,2.856,0,0,0-2.344-3.289l-8.419-1.41a2.856,2.856,0,0,0-3.289,2.345h0A2.855,2.855,0,0,0,470.667,382.968Zm15.028-5.2,7.664,3.757a2.856,2.856,0,0,0,3.822-1.307h0a2.856,2.856,0,0,0-1.306-3.822l-7.665-3.757a2.856,2.856,0,0,0-3.822,1.307h0A2.854,2.854,0,0,0,485.695,377.767Z" transform="translate(-438.52 -372.345)" fill="#a7c712"/>
      <path id="Path_23" data-name="Path 23" d="M465.009,396.9l9.8-.828a2.856,2.856,0,0,0,2.606-3.087h0a2.855,2.855,0,0,0-3.086-2.6l-8.5.718a2.856,2.856,0,0,0-2.606,3.087l.109,1.3a1.552,1.552,0,0,0,1.679,1.417m15.029-8.423,7.986,3.014a2.858,2.858,0,0,0,3.681-1.663h0a2.857,2.857,0,0,0-1.663-3.681l-7.986-3.014a2.856,2.856,0,0,0-3.681,1.663h0A2.858,2.858,0,0,0,480.038,388.48Zm26.26.536-5.976-6.1a2.856,2.856,0,0,0-4.039-.04h0a2.855,2.855,0,0,0-.039,4.039l5.974,6.1a2.856,2.856,0,0,0,4.039.04h0A2.856,2.856,0,0,0,506.3,389.016Zm5.016,2.942,3.366,7.844a2.858,2.858,0,0,0,3.753,1.5h0a2.857,2.857,0,0,0,1.5-3.752l-3.367-7.844a2.857,2.857,0,0,0-3.752-1.5h0A2.856,2.856,0,0,0,511.314,391.958Zm17.36,19.467.532-8.518a2.858,2.858,0,0,0-2.674-3.03h0a2.858,2.858,0,0,0-3.03,2.674l-.531,8.518a2.857,2.857,0,0,0,2.674,3.03h0A2.858,2.858,0,0,0,528.674,411.425Zm1.18,6.054-3.649,7.716a2.857,2.857,0,0,0,1.362,3.8h0a2.855,2.855,0,0,0,3.8-1.361l3.649-7.716a2.857,2.857,0,0,0-1.362-3.8h0A2.856,2.856,0,0,0,529.854,417.479Zm-.224,15.926-6.277,5.783a2.856,2.856,0,0,0-.164,4.037h0a2.856,2.856,0,0,0,4.036.164l6.277-5.783a2.856,2.856,0,0,0,.166-4.036h0A2.856,2.856,0,0,0,529.63,433.405Zm-6.464,14.782-8.191,2.4a2.856,2.856,0,0,0-1.938,3.544h0a2.856,2.856,0,0,0,3.545,1.937l8.19-2.4a2.856,2.856,0,0,0,1.938-3.545h0A2.857,2.857,0,0,0,523.165,448.187ZM511.3,459.048l-8.442-1.262a2.856,2.856,0,0,0-3.247,2.4h0a2.856,2.856,0,0,0,2.4,3.247l8.442,1.263a2.856,2.856,0,0,0,3.247-2.4h0A2.856,2.856,0,0,0,511.3,459.048Zm-25.626,5.268,7.368,4.307a2.857,2.857,0,0,0,3.908-1.023h0a2.855,2.855,0,0,0-1.025-3.907l-7.369-4.308a2.858,2.858,0,0,0-3.907,1.025h0A2.855,2.855,0,0,0,485.675,464.316Zm-15.329-6.107,4.726,7.109a2.856,2.856,0,0,0,3.96.8h0a2.856,2.856,0,0,0,.8-3.959l-4.726-7.109a2.855,2.855,0,0,0-3.96-.8h0A2.856,2.856,0,0,0,470.346,458.209Zm-11.2-11.507,1.31,8.434a2.857,2.857,0,0,0,3.262,2.384h0a2.857,2.857,0,0,0,2.384-3.262l-1.31-8.434a2.857,2.857,0,0,0-3.262-2.383h0A2.855,2.855,0,0,0,459.141,446.7Zm-2.6-4.783,2.018-8.294a2.857,2.857,0,0,0-2.1-3.451h0a2.856,2.856,0,0,0-3.451,2.1l-2.017,8.294a2.856,2.856,0,0,0,2.1,3.451h0A2.856,2.856,0,0,0,456.545,441.919Zm-2.277-26.734-5.47,6.553a2.857,2.857,0,0,0,.364,4.023h0a2.857,2.857,0,0,0,4.023-.364l5.47-6.552a2.858,2.858,0,0,0-.364-4.024h0A2.857,2.857,0,0,0,454.267,415.185Zm2.259-5.549,7.567-3.947a2.856,2.856,0,0,0,1.211-3.853h0a2.855,2.855,0,0,0-3.853-1.211l-7.567,3.947a2.856,2.856,0,0,0-1.211,3.853h0A2.856,2.856,0,0,0,456.526,409.635Z" transform="translate(-435.601 -369.394)" fill="#569b33"/>
      <path id="Path_24" data-name="Path 24" d="M512.282,411.184l-1.563-9.712a2.857,2.857,0,0,0-3.273-2.367h0a2.857,2.857,0,0,0-2.366,3.275l1.356,8.427a2.855,2.855,0,0,0,3.273,2.366l1.287-.206a1.556,1.556,0,0,0,1.288-1.782m2.615,14.778,3.859-7.614a2.856,2.856,0,0,0-1.258-3.839h0a2.857,2.857,0,0,0-3.839,1.257l-3.857,7.614a2.857,2.857,0,0,0,1.257,3.839h0A2.857,2.857,0,0,0,514.9,425.962ZM508.2,440.6l7.567-3.947a2.855,2.855,0,0,0,1.211-3.853h0a2.857,2.857,0,0,0-3.854-1.212l-7.567,3.949a2.855,2.855,0,0,0-1.211,3.853h0A2.856,2.856,0,0,0,508.2,440.6Zm-5.05,3.444L494.7,442.8a2.856,2.856,0,0,0-3.245,2.406h0a2.858,2.858,0,0,0,2.406,3.245l8.443,1.253a2.856,2.856,0,0,0,3.243-2.406h0A2.855,2.855,0,0,0,503.147,444.048Zm-15.214,4.224-6.136-5.933a2.856,2.856,0,0,0-4.039.068h0a2.856,2.856,0,0,0,.068,4.039l6.136,5.933a2.858,2.858,0,0,0,4.04-.068h0A2.856,2.856,0,0,0,487.932,448.272Zm-15.264-5.766-1.356-8.426a2.857,2.857,0,0,0-3.275-2.366h0a2.857,2.857,0,0,0-2.366,3.273l1.356,8.428a2.857,2.857,0,0,0,3.273,2.366h0A2.857,2.857,0,0,0,472.668,442.506ZM464,429.1l3.857-7.613a2.857,2.857,0,0,0-1.257-3.839h0a2.856,2.856,0,0,0-3.839,1.257l-3.859,7.614a2.856,2.856,0,0,0,1.258,3.839h0A2.856,2.856,0,0,0,464,429.1Zm.8-15.762,7.566-3.947a2.859,2.859,0,0,0,1.212-3.855h0a2.854,2.854,0,0,0-3.852-1.211l-7.569,3.947a2.857,2.857,0,0,0-1.211,3.855h0A2.857,2.857,0,0,0,464.8,413.336Zm19.256-16.856-8.442-1.253a2.857,2.857,0,0,0-3.245,2.406h0a2.855,2.855,0,0,0,2.406,3.245l8.442,1.253a2.857,2.857,0,0,0,3.245-2.406h0A2.857,2.857,0,0,0,484.054,396.481Zm16.04,2-6.136-5.933a2.857,2.857,0,0,0-4.039.068h0a2.856,2.856,0,0,0,.069,4.039l6.136,5.933a2.856,2.856,0,0,0,4.039-.068h0A2.858,2.858,0,0,0,500.094,398.481Z" transform="translate(-432.426 -366.454)" fill="#a7c712"/>
      <path id="Path_25" data-name="Path 25" d="M484.848,403.46a14.912,14.912,0,1,0,14.912,14.913A14.92,14.92,0,0,0,484.848,403.46Zm0,22.8a7.89,7.89,0,1,1,7.89-7.89A7.895,7.895,0,0,1,484.848,426.263Z" transform="translate(-428.447 -362.363)" fill="#1d3400"/>
    </g>
  </g>
</svg>
