<svg xmlns="http://www.w3.org/2000/svg" width="162.061" height="161.919" viewBox="0 0 162.061 161.919">
  <path id="Icon" d="M67.475,161.919a6.749,6.749,0,0,1-5.362-10.844l12.109-16.145H93.794L72.655,159.508l-.025.025A6.764,6.764,0,0,1,67.475,161.919ZM46.839,121.45a6.813,6.813,0,0,1-5.745-3.212,6.751,6.751,0,0,1,5.739-10.286h.1a.775.775,0,0,0,.115.006l.158-.012,36.273-2.793-18.637-23.3a16.83,16.83,0,0,1,3.48-25.089L97.3,33.735l-9.99-10.7-32.459,3.9a6.325,6.325,0,0,1-.887.061,6.749,6.749,0,0,1-1.3-13.37L86.4,6.879a6.872,6.872,0,0,1,.966-.121c.121-.006.243-.012.364-.012a6.872,6.872,0,0,1,4.063,1.36l28.226,21.318a16.775,16.775,0,0,1,7.5,9.721,14.246,14.246,0,0,1,.462,2.046l5.417,24.494,21.85,1.779h.067a6.746,6.746,0,1,1,0,13.492H128.2a6.706,6.706,0,0,1-5.678-3.109l-.055-.079a6.529,6.529,0,0,1-.765-1.737l-6.164-14.02L94.468,78.68l12.516,27.8-.079.079a10.518,10.518,0,0,1-.9,10.049,10.239,10.239,0,0,1-8.569,4.827h-50.3l-.054,0C46.991,121.446,46.919,121.45,46.839,121.45ZM45.795,87.7h-32.3L6.747,80.956H42.291a30.047,30.047,0,0,0,3.5,6.734Zm-4.98-20.238H0V60.719H42.358a30.465,30.465,0,0,0-1.542,6.74Zm11.04-20.238H13.494l6.747-6.746H60.357l-8.5,6.744Zm93.217-13.492a16.868,16.868,0,1,1,16.87-16.868A16.888,16.888,0,0,1,145.072,33.735Z" fill="#fff"/>
</svg>
