<svg xmlns="http://www.w3.org/2000/svg" width="159.957" height="140" viewBox="0 0 159.957 140">
  <path id="heart" d="M143.211,42.076c-18.058-15.183-45.956-12.9-63.233,4.686C62.7,29.173,34.8,26.861,16.745,42.076-6.748,61.852-3.312,94.093,13.434,111.182l54.8,55.829a16.409,16.409,0,0,0,23.494.031l54.8-55.829C163.237,94.124,166.736,61.883,143.211,42.076Zm-7.373,58.578-54.8,55.829a1.284,1.284,0,0,1-2.124,0l-54.8-55.829C12.715,89.032,10.4,67.038,26.4,53.573c12.153-10.216,30.9-8.685,42.645,3.28L79.978,68.006,90.913,56.853c11.809-12.028,30.554-13.5,42.645-3.312,15.964,13.465,13.59,35.584,2.281,47.112Z" transform="translate(0 -31.978)" fill="#fff"/>
</svg>
