<svg id="Icon_Tab_Bar_Trend" data-name="Icon – Tab Bar / Trend" xmlns="http://www.w3.org/2000/svg" xmlns:xlink="http://www.w3.org/1999/xlink" width="85.715" height="158.244" viewBox="0 0 85.715 158.244">
  <defs>
    <clipPath id="clip-path">
      <path id="Icon" d="M24.5,0a6.123,6.123,0,0,0-6.036,5.025h0L.216,83.579A6.5,6.5,0,0,0,0,85.206H0a6.086,6.086,0,0,0,6.124,6.08H39.8l-9.071,59.654a5.477,5.477,0,0,0-.12,1.207h0a6.118,6.118,0,0,0,6.116,6.1h0a6.118,6.118,0,0,0,5.406-3.263h0L84.518,76.617a6.812,6.812,0,0,0,1.2-3.588h0a6.1,6.1,0,0,0-6.132-6.08H45.912l20.9-58.368a6.147,6.147,0,0,0,.535-2.5h0A6.1,6.1,0,0,0,61.218,0H24.5Z" fill="#fff"/>
    </clipPath>
  </defs>
  <g id="Muted" transform="translate(0 0)">
    <path id="Icon-2" data-name="Icon" d="M24.5,0a6.123,6.123,0,0,0-6.036,5.025h0L.216,83.579A6.5,6.5,0,0,0,0,85.206H0a6.086,6.086,0,0,0,6.124,6.08H39.8l-9.071,59.654a5.477,5.477,0,0,0-.12,1.207h0a6.118,6.118,0,0,0,6.116,6.1h0a6.118,6.118,0,0,0,5.406-3.263h0L84.518,76.617a6.812,6.812,0,0,0,1.2-3.588h0a6.1,6.1,0,0,0-6.132-6.08H45.912l20.9-58.368a6.147,6.147,0,0,0,.535-2.5h0A6.1,6.1,0,0,0,61.218,0H24.5Z" fill="#fff"/>
  </g>
</svg>
