<svg xmlns="http://www.w3.org/2000/svg" width="169.051" height="230.684" viewBox="0 0 169.051 230.684">
  <g id="Group_10" data-name="Group 10" transform="translate(-125 -282)">
    <g id="Group_8" data-name="Group 8" transform="translate(125 440.064)">
      <path id="Path_12" data-name="Path 12" d="M213.624-132.618h-1.375a19.489,19.489,0,0,1-.129-2.355,3.852,3.852,0,0,1-4.059,2.637c-4.439,0-5.445-4.792-5.445-10.409,0-6.81,2.008-10.378,6.03-10.378,4.617,0,4.94,4.159,5,5.374h-1.719c-.059-.682-.213-3.845-3.324-3.845-3.05,0-4.189,3.458-4.189,8.8,0,5.183.83,8.936,3.875,8.936,3.024,0,3.663-2.578,3.663-7.275v-.935h-3.8V-143.6h5.475Z" transform="translate(-138.783 204.956)" fill="#fff"/>
      <path id="Path_13" data-name="Path 13" d="M230.006-132.388V-140.3a1.164,1.164,0,0,0-.1-.46l-5.156-11.856h1.925c1.47,3.517,3.618,8.577,4.237,10.268.694-1.764,2.892-6.925,4.293-10.268h1.811l-5.215,11.84a.947.947,0,0,0-.094.464v7.923Z" transform="translate(-148.807 204.726)" fill="#fff"/>
      <path id="Path_14" data-name="Path 14" d="M262.242-141.412c0-3.885.06-7.616.119-9.686h-.039c-.759,3.372-2.859,12.367-4.582,18.709h-1.712c-1.3-5.362-3.5-15.068-4.275-18.744h-.069c.119,2.349.208,6.887.208,10.342v8.4h-1.646v-20.227h2.538c1.846,6.63,3.668,15.1,4.179,17.625h.03c.367-1.981,2.591-11.233,4.411-17.625h2.539v20.227h-1.7Z" transform="translate(-160.353 204.726)" fill="#fff"/>
      <path id="Path_15" data-name="Path 15" d="M116.986-254.842h-9.712l-5.8,10.791-5.755-10.791H85.953l10.679,19.684-7.305,13.694-.372.695-2.563,4.816-.327.617,9.563.025,5.843-10.8,5.383,9.96.438.843h9.658l-10.642-19.846Z" transform="translate(-85.953 256.189)" fill="#fff"/>
      <path id="Path_16" data-name="Path 16" d="M249.849-255.955v8.94H228.866v6.975h10.849v9.051H228.866v5.564h20.984v9H220.5v-39.526Zm-36.376,5.736-5.215,7.2a9.39,9.39,0,0,0-3.763-2.923,11.831,11.831,0,0,0-4.9-1.069,10.525,10.525,0,0,0-5.026,1.32,10.9,10.9,0,0,0-4.037,3.767,10.192,10.192,0,0,0-1.577,5.65,10.425,10.425,0,0,0,1.6,5.791,10.593,10.593,0,0,0,4.121,3.768,11.218,11.218,0,0,0,5.173,1.293,11.2,11.2,0,0,0,3.995-.732,10.442,10.442,0,0,0,3.491-2.192h-7.99V-237.4h15.308v13.887l-.127.113a18.837,18.837,0,0,1-6.581,5.2,18.112,18.112,0,0,1-7.8,1.771,18.3,18.3,0,0,1-7.128-1.433,18.558,18.558,0,0,1-6.2-4.3,19.523,19.523,0,0,1-5.677-14.113,19.425,19.425,0,0,1,1.492-7.674,20.174,20.174,0,0,1,4.185-6.268,18.628,18.628,0,0,1,6.181-4.3,18.253,18.253,0,0,1,7.15-1.434,18.5,18.5,0,0,1,7.127,1.434A18.026,18.026,0,0,1,213.473-250.219Zm-54.028-5.736.273.619,5.762,13.719,6.14-14.338h9.166l-10.892,25.7-.211.506v13.324h-8.369v-13.494a19.691,19.691,0,0,0-1.472-3.936l-.631-1.292-1.3-2.7-7.7-18.105Zm116.647,0h8.327v40.819l-.673-.675q-7.316-7.533-20.312-20.578v19.96h-8.369V-257.3l.673.732q3.153,3.262,15.812,16.024L276.092-236Z" transform="translate(-115.368 257.304)" fill="#fff"/>
    </g>
    <g id="Group_9" data-name="Group 9" transform="translate(141.22 282)">
      <g id="Group_7" data-name="Group 7" transform="translate(0)">
        <path id="Path_9" data-name="Path 9" d="M131.688,34.557l-9.423-9.612a1.877,1.877,0,0,0-2.656-.025l-2.248,2.2a1.878,1.878,0,0,0-.025,2.656l9.421,9.612a1.877,1.877,0,0,0,2.656.027l2.248-2.2a1.88,1.88,0,0,0,.027-2.657m4.51.625,6.074,12.011a1.878,1.878,0,0,0,2.524.829L147.6,46.6a1.879,1.879,0,0,0,.829-2.524l-6.074-12.013a1.878,1.878,0,0,0-2.524-.829l-2.809,1.421A1.878,1.878,0,0,0,136.2,35.183Zm16.423,11,2.067,13.3a1.879,1.879,0,0,0,2.144,1.567l3.111-.484a1.878,1.878,0,0,0,1.567-2.144l-2.067-13.3a1.88,1.88,0,0,0-2.145-1.569l-3.108.484A1.878,1.878,0,0,0,152.621,46.184Zm16.918,30L171.7,62.9a1.88,1.88,0,0,0-1.553-2.156l-3.106-.5a1.878,1.878,0,0,0-2.155,1.553l-2.16,13.285a1.876,1.876,0,0,0,1.552,2.155l3.106.506A1.881,1.881,0,0,0,169.539,76.187Zm2.128,4.1L165.3,92.149a1.877,1.877,0,0,0,.767,2.542l2.772,1.49a1.881,1.881,0,0,0,2.544-.767l6.365-11.86a1.876,1.876,0,0,0-.766-2.542l-2.772-1.489A1.879,1.879,0,0,0,171.667,80.289Zm.756,19.59-9.489,9.546a1.88,1.88,0,0,0,.008,2.657l2.232,2.218a1.878,1.878,0,0,0,2.656-.008l9.489-9.546a1.875,1.875,0,0,0-.008-2.656l-2.231-2.219A1.88,1.88,0,0,0,172.423,99.879Zm-13.952,31.467,11.934-6.227a1.877,1.877,0,0,0,.8-2.533l-1.455-2.791a1.88,1.88,0,0,0-2.535-.8l-11.934,6.227a1.881,1.881,0,0,0-.8,2.535l1.457,2.79A1.879,1.879,0,0,0,158.472,131.346Zm-2.531,4.174-13.325,1.9a1.877,1.877,0,0,0-1.6,2.123l.444,3.116a1.881,1.881,0,0,0,2.125,1.6l13.325-1.9a1.879,1.879,0,0,0,1.594-2.125l-.443-3.116A1.878,1.878,0,0,0,155.94,135.52Zm-15.448,12.3-13.311-1.991a1.877,1.877,0,0,0-2.136,1.578l-.465,3.113a1.877,1.877,0,0,0,1.58,2.136l13.311,1.991a1.877,1.877,0,0,0,2.136-1.578l.466-3.114A1.878,1.878,0,0,0,140.492,147.821Zm-33.7,7.007,12.085,5.924a1.878,1.878,0,0,0,2.514-.862l1.385-2.824a1.878,1.878,0,0,0-.86-2.514l-12.085-5.924a1.879,1.879,0,0,0-2.514.86l-1.385,2.826A1.878,1.878,0,0,0,106.795,154.827Zm-4.527.512-9.421-9.612a1.879,1.879,0,0,0-2.657-.027l-2.246,2.2a1.879,1.879,0,0,0-.027,2.657l9.423,9.612a1.878,1.878,0,0,0,2.656.027l2.246-2.2A1.877,1.877,0,0,0,102.267,155.339ZM70.889,141.033l6.074,12.013a1.877,1.877,0,0,0,2.524.827l2.809-1.419a1.879,1.879,0,0,0,.829-2.524L77.05,137.917a1.879,1.879,0,0,0-2.523-.829l-2.809,1.421A1.878,1.878,0,0,0,70.889,141.033ZM57.811,126.688l2.067,13.3a1.877,1.877,0,0,0,2.144,1.567l3.109-.482a1.88,1.88,0,0,0,1.569-2.145l-2.067-13.3a1.878,1.878,0,0,0-2.145-1.567l-3.109.482A1.879,1.879,0,0,0,57.811,126.688Zm-3.374-3.369,2.16-13.285a1.88,1.88,0,0,0-1.553-2.156l-3.1-.5a1.879,1.879,0,0,0-2.156,1.553l-2.16,13.285a1.878,1.878,0,0,0,1.553,2.155l3.106.5A1.877,1.877,0,0,0,54.437,123.318ZM47.511,89.835,41.144,101.7a1.876,1.876,0,0,0,.767,2.542l2.772,1.489a1.876,1.876,0,0,0,2.542-.766L53.594,93.1a1.881,1.881,0,0,0-.767-2.544L50.055,89.07A1.879,1.879,0,0,0,47.511,89.835Zm4.015-19.158-9.491,9.546a1.877,1.877,0,0,0,.009,2.656L44.275,85.1a1.879,1.879,0,0,0,2.657-.008l9.489-9.546a1.878,1.878,0,0,0-.008-2.656l-2.232-2.219A1.878,1.878,0,0,0,51.526,70.677Zm.583-4.563,11.934-6.225a1.878,1.878,0,0,0,.8-2.535l-1.456-2.79a1.878,1.878,0,0,0-2.535-.8L48.916,59.992a1.88,1.88,0,0,0-.8,2.535l1.457,2.79A1.877,1.877,0,0,0,52.109,66.114ZM75.6,40.79l-13.325,1.9a1.879,1.879,0,0,0-1.6,2.123l.444,3.116a1.88,1.88,0,0,0,2.125,1.6l13.325-1.9a1.881,1.881,0,0,0,1.6-2.125l-.444-3.116A1.878,1.878,0,0,0,75.6,40.79Zm3.173-3.347,13.274,2.224a1.877,1.877,0,0,0,2.163-1.542l.52-3.1a1.876,1.876,0,0,0-1.542-2.163L79.91,30.633a1.88,1.88,0,0,0-2.163,1.542l-.52,3.1A1.878,1.878,0,0,0,78.77,37.443Zm18.3-6.718,12.087,5.924a1.88,1.88,0,0,0,2.514-.86l1.385-2.826a1.878,1.878,0,0,0-.86-2.512l-12.085-5.924a1.879,1.879,0,0,0-2.514.86l-1.386,2.826A1.878,1.878,0,0,0,97.068,30.725Z" transform="translate(-40.92 -24.334)" fill="#fff"/>
        <path id="Path_10" data-name="Path 10" d="M71.513,52.56l13.413-1.134a1.877,1.877,0,0,0,1.712-2.03l-.265-3.135a1.878,1.878,0,0,0-2.029-1.714L70.932,45.681a1.878,1.878,0,0,0-1.714,2.029l.266,3.136a1.878,1.878,0,0,0,2.029,1.714M88.2,41.825l12.592,4.754a1.878,1.878,0,0,0,2.421-1.093l1.112-2.944a1.88,1.88,0,0,0-1.095-2.421L90.641,35.366a1.88,1.88,0,0,0-2.421,1.095l-1.111,2.944A1.876,1.876,0,0,0,88.2,41.825Zm34.3,2.327-9.423-9.612a1.878,1.878,0,0,0-2.656-.025l-2.248,2.2a1.88,1.88,0,0,0-.027,2.657l9.423,9.61a1.877,1.877,0,0,0,2.656.027l2.248-2.2A1.88,1.88,0,0,0,122.506,44.152Zm4.338.988,5.31,12.369a1.879,1.879,0,0,0,2.468.985l2.891-1.241a1.88,1.88,0,0,0,.986-2.467l-5.31-12.369a1.879,1.879,0,0,0-2.468-.985l-2.891,1.241A1.88,1.88,0,0,0,126.844,45.139Zm21.5,26.539.838-13.435a1.879,1.879,0,0,0-1.758-1.991l-3.141-.2a1.88,1.88,0,0,0-1.993,1.756l-.838,13.435a1.879,1.879,0,0,0,1.758,1.991l3.141.2A1.877,1.877,0,0,0,148.346,71.679Zm2.2,4.322L144.788,88.17a1.88,1.88,0,0,0,.9,2.5l2.845,1.345a1.877,1.877,0,0,0,2.5-.9l5.754-12.167a1.879,1.879,0,0,0-.9-2.5l-2.845-1.345A1.877,1.877,0,0,0,150.542,76Zm.214,19.6-9.9,9.122a1.877,1.877,0,0,0-.109,2.653l2.133,2.316a1.878,1.878,0,0,0,2.654.107l9.9-9.121a1.876,1.876,0,0,0,.109-2.654l-2.133-2.314A1.877,1.877,0,0,0,150.756,95.6Zm-7.46,18.487-12.917,3.784A1.88,1.88,0,0,0,129.1,120.2l.885,3.02a1.878,1.878,0,0,0,2.33,1.276l12.918-3.785a1.878,1.878,0,0,0,1.274-2.331l-.885-3.02A1.879,1.879,0,0,0,143.3,114.087Zm-14.29,13.8-13.312-1.993a1.881,1.881,0,0,0-2.136,1.58l-.465,3.113a1.878,1.878,0,0,0,1.58,2.136l13.311,1.991a1.879,1.879,0,0,0,2.136-1.58l.466-3.113A1.878,1.878,0,0,0,129.006,127.887Zm-33.878,5.339,11.619,6.792a1.88,1.88,0,0,0,2.571-.674l1.588-2.716a1.88,1.88,0,0,0-.674-2.571l-11.62-6.792a1.878,1.878,0,0,0-2.569.674l-1.588,2.716A1.879,1.879,0,0,0,95.127,133.226Zm-18.036-7.9,7.451,11.209a1.879,1.879,0,0,0,2.605.525l2.62-1.742a1.877,1.877,0,0,0,.525-2.6L82.84,121.508a1.879,1.879,0,0,0-2.605-.525l-2.62,1.742A1.877,1.877,0,0,0,77.091,125.329ZM64.18,111.181l2.067,13.3a1.88,1.88,0,0,0,2.145,1.567l3.109-.484a1.878,1.878,0,0,0,1.567-2.144L71,110.12a1.878,1.878,0,0,0-2.144-1.567l-3.11.484A1.878,1.878,0,0,0,64.18,111.181Zm-3.267-2.7L64.1,95.4a1.878,1.878,0,0,0-1.381-2.268l-3.058-.745a1.88,1.88,0,0,0-2.27,1.381l-3.18,13.079a1.876,1.876,0,0,0,1.38,2.268l3.058.745A1.88,1.88,0,0,0,60.913,108.484ZM59.54,73.443,50.915,83.776a1.879,1.879,0,0,0,.239,2.646l2.416,2.016a1.878,1.878,0,0,0,2.645-.238L64.84,77.866a1.877,1.877,0,0,0-.238-2.645L62.186,73.2A1.88,1.88,0,0,0,59.54,73.443Zm.329-4.771L71.8,62.446a1.876,1.876,0,0,0,.8-2.533l-1.456-2.791a1.878,1.878,0,0,0-2.535-.8L56.674,62.552a1.877,1.877,0,0,0-.8,2.533l1.456,2.791A1.877,1.877,0,0,0,59.869,68.672Z" transform="translate(-35.421 -18.787)" fill="#fff"/>
        <path id="Path_11" data-name="Path 11" d="M126.418,67.8l-2.138-13.289a1.878,1.878,0,0,0-2.153-1.556l-3.106.5a1.878,1.878,0,0,0-1.556,2.152L119.6,68.894a1.878,1.878,0,0,0,2.153,1.556l3.108-.5a1.877,1.877,0,0,0,1.555-2.153m2.451,19.26,6.084-12.006a1.879,1.879,0,0,0-.827-2.525L131.319,71.1a1.878,1.878,0,0,0-2.525.827L122.71,83.938a1.881,1.881,0,0,0,.827,2.525l2.807,1.422A1.881,1.881,0,0,0,128.869,87.058Zm-8.782,17.019,11.934-6.225a1.878,1.878,0,0,0,.8-2.535l-1.456-2.79a1.878,1.878,0,0,0-2.535-.8l-11.934,6.225a1.88,1.88,0,0,0-.8,2.535l1.457,2.79A1.878,1.878,0,0,0,120.087,104.077Zm-3.15,3.664-13.315-1.975a1.877,1.877,0,0,0-2.133,1.581l-.463,3.113a1.881,1.881,0,0,0,1.583,2.134l13.314,1.975a1.878,1.878,0,0,0,2.134-1.583l.462-3.113A1.877,1.877,0,0,0,116.937,107.741Zm-18.81,5.967-9.677-9.357a1.879,1.879,0,0,0-2.656.046l-2.186,2.262a1.877,1.877,0,0,0,.044,2.656l9.677,9.357a1.878,1.878,0,0,0,2.656-.046l2.188-2.262A1.877,1.877,0,0,0,98.127,113.708ZM78.8,107.2,76.663,93.912a1.877,1.877,0,0,0-2.152-1.556l-3.108.5a1.88,1.88,0,0,0-1.556,2.153L71.986,108.3a1.876,1.876,0,0,0,2.152,1.556l3.108-.5A1.88,1.88,0,0,0,78.8,107.2ZM67.363,90.85l6.084-12.006a1.877,1.877,0,0,0-.827-2.525L69.812,74.9a1.876,1.876,0,0,0-2.524.827L61.205,87.729a1.877,1.877,0,0,0,.825,2.524l2.809,1.422A1.877,1.877,0,0,0,67.363,90.85Zm.284-19.723L79.58,64.9a1.877,1.877,0,0,0,.8-2.535l-1.456-2.79a1.876,1.876,0,0,0-2.533-.8L64.453,65.007a1.879,1.879,0,0,0-.8,2.535l1.456,2.788A1.877,1.877,0,0,0,67.646,71.126Zm26.22-20.862L80.552,48.287a1.881,1.881,0,0,0-2.134,1.583l-.462,3.113a1.878,1.878,0,0,0,1.583,2.134l13.314,1.975a1.877,1.877,0,0,0,2.133-1.583l.463-3.113A1.879,1.879,0,0,0,93.866,50.264Zm18.956,3.278-9.677-9.355a1.878,1.878,0,0,0-2.656.044L98.3,46.493a1.882,1.882,0,0,0,.044,2.657l9.678,9.355a1.878,1.878,0,0,0,2.656-.044l2.188-2.264A1.878,1.878,0,0,0,112.822,53.542Z" transform="translate(-29.368 -13.218)" fill="#fff"/>
      </g>
      <g id="Ellipse_1" data-name="Ellipse 1" transform="translate(52.663 50.012)" fill="none" stroke="#fff" stroke-width="7">
        <ellipse cx="16.22" cy="16.896" rx="16.22" ry="16.896" stroke="none"/>
        <ellipse cx="16.22" cy="16.896" rx="12.72" ry="13.396" fill="none"/>
      </g>
    </g>
  </g>
</svg>
