<svg xmlns="http://www.w3.org/2000/svg" width="63.594" height="52" viewBox="0 0 63.594 52">
  <g id="noun_booking_1696096" transform="translate(-0.705 -6.5)">
    <path id="Path_38" data-name="Path 38" d="M14.482,23.963H7.944a1.5,1.5,0,0,0-1.5,1.5V32a1.5,1.5,0,0,0,1.5,1.5h6.538a1.5,1.5,0,0,0,1.5-1.5V25.462A1.5,1.5,0,0,0,14.482,23.963Z" fill="#67b500"/>
    <path id="Path_39" data-name="Path 39" d="M25.805,23.963H19.267a1.5,1.5,0,0,0-1.5,1.5V32a1.5,1.5,0,0,0,1.5,1.5h6.538a1.5,1.5,0,0,0,1.5-1.5V25.462A1.5,1.5,0,0,0,25.805,23.963Z" fill="#67b500"/>
    <path id="Path_40" data-name="Path 40" d="M37.125,23.963H30.588a1.5,1.5,0,0,0-1.5,1.5V32a1.5,1.5,0,0,0,1.5,1.5h6.537a1.5,1.5,0,0,0,1.5-1.5V25.462A1.5,1.5,0,0,0,37.125,23.963Z" fill="#67b500"/>
    <path id="Path_41" data-name="Path 41" d="M14.482,35.565H7.944a1.5,1.5,0,0,0-1.5,1.5V43.6a1.5,1.5,0,0,0,1.5,1.5h6.538a1.5,1.5,0,0,0,1.5-1.5V37.065A1.5,1.5,0,0,0,14.482,35.565Z" fill="#67b500"/>
    <path id="Path_42" data-name="Path 42" d="M25.805,35.565H19.267a1.5,1.5,0,0,0-1.5,1.5V43.6a1.5,1.5,0,0,0,1.5,1.5h6.538a1.5,1.5,0,0,0,1.5-1.5V37.065A1.5,1.5,0,0,0,25.805,35.565Z" fill="#67b500"/>
    <path id="Path_43" data-name="Path 43" d="M55.69,31.583V14.28a4.376,4.376,0,0,0-4.371-4.371h-4.4V8a1.5,1.5,0,0,0-3,0V9.909H38.309V8a1.5,1.5,0,0,0-3,0V9.909H29.7V8a1.5,1.5,0,0,0-3,0V9.909H21.086V8a1.5,1.5,0,0,0-3,0V9.909H12.475V8a1.5,1.5,0,1,0-3,0V9.909h-4.4A4.375,4.375,0,0,0,.7,14.28V46.812a4.375,4.375,0,0,0,4.37,4.371H38a14,14,0,1,0,17.69-19.6ZM5.073,12.909h4.4v1.909a1.5,1.5,0,1,0,3,0V12.909h5.611v1.909a1.5,1.5,0,0,0,3,0V12.909H26.7v1.909a1.5,1.5,0,0,0,3,0V12.909h5.611v1.909a1.5,1.5,0,1,0,3,0V12.909h5.611v1.909a1.5,1.5,0,1,0,3,0V12.909h4.4a1.373,1.373,0,0,1,1.371,1.371v3.6H3.7v-3.6A1.372,1.372,0,0,1,5.073,12.909ZM38.6,36.826a1.5,1.5,0,0,0-1.476-1.261H30.588a1.5,1.5,0,0,0-1.5,1.5V43.6a1.5,1.5,0,0,0,1.5,1.5h5.739a13.9,13.9,0,0,0,.478,3.08H5.073A1.372,1.372,0,0,1,3.7,46.811V20.882H52.69v9.837A13.985,13.985,0,0,0,50.3,30.5c-.117,0-.231.015-.349.018V25.462a1.5,1.5,0,0,0-1.5-1.5H41.91a1.5,1.5,0,0,0-1.5,1.5V32a1.5,1.5,0,0,0,1.284,1.478A14.116,14.116,0,0,0,38.6,36.826ZM56.071,46l-2.12-1.5L51.8,41.925l-10.1-1.291V44.5c0-.75,1.589-1.5,1.589-1.5l14.541,4.25L48.8,37.065c0-.828-2.735,3.569-1.907,3.569s3.057-.546,3.057.282L51.8,43l5.341,4.855c.828,0,.433-4.183.433-3.355A1.5,1.5,0,0,1,56.071,46Z" fill="#67b500"/>
    <path id="Path_44" data-name="Path 44" d="M0,0,12,12" transform="translate(44.5 38)" fill="none" stroke="#fff" stroke-linecap="round" stroke-width="1"/>
    <line id="Line_2" data-name="Line 2" x1="12" y2="12" transform="translate(44.5 38)" fill="none" stroke="#fff" stroke-linecap="round" stroke-width="1"/>
  </g>
</svg>
