<svg xmlns="http://www.w3.org/2000/svg" width="120.001" height="120.002" viewBox="0 0 120.001 120.002">
  <path id="Icon" d="M88.592,120H19.964c-6.856,0-9.419-.7-12-2.078a14.1,14.1,0,0,1-5.883-5.888C.7,109.451,0,106.886,0,100.038V31.4c0-6.848.7-9.413,2.083-12A14.09,14.09,0,0,1,7.966,13.52c2.585-1.381,5.15-2.083,12-2.083H88.592c1.652,0,3.089.042,4.392.129L32.692,71.749a33.769,33.769,0,0,1,8.994,6.562A33.611,33.611,0,0,1,48.243,87.3L108.42,27.021c.1,1.287.141,2.719.141,4.38v68.637c0,6.848-.7,9.413-2.083,12a14.122,14.122,0,0,1-5.888,5.888C98.017,119.3,95.455,120,88.592,120ZM26.608,77.823h0L25,79.432a9.036,9.036,0,0,0-2.1,3.944l-3.435,17.15L36.626,97.1A8.982,8.982,0,0,0,40.565,95l1.615-1.615-.041-.124c-.026-.087-.057-.175-.087-.262a23.572,23.572,0,0,0-5.873-9.185,23.586,23.586,0,0,0-9.185-5.873l-.386-.123Zm81.818-50.806V27a16.991,16.991,0,0,0-1.946-7.6,14.092,14.092,0,0,0-5.888-5.883,17.026,17.026,0,0,0-7.606-1.954l8.424-8.408a10.912,10.912,0,0,1,15.392.036,10.9,10.9,0,0,1,.041,15.392l-8.406,8.422Z" transform="translate(0 0)" fill="#fff"/>
</svg>
