<svg xmlns="http://www.w3.org/2000/svg" width="725.593" height="723.492" viewBox="0 0 725.593 723.492">
  <g id="Group_134" data-name="Group 134" transform="translate(-1482.385 -1325)" opacity="0.7" style="mix-blend-mode: luminosity;isolation: isolate">
    <g id="Group_13" data-name="Group 13" transform="translate(1482.385 1325)">
      <path id="Path_22" data-name="Path 22" d="M920.03,424.081l-44.419-45.31a18.419,18.419,0,0,0-26.048-.261h0a18.429,18.429,0,0,0-.261,26.056l38.533,39.315a18.42,18.42,0,0,0,26.048.261l6-5.886a10.017,10.017,0,0,0,.143-14.176m27.864,10.83,24.837,49.127a18.419,18.419,0,0,0,24.753,8.122h.008a18.419,18.419,0,0,0,8.122-24.753L980.777,418.28a18.423,18.423,0,0,0-24.753-8.131l-.008.009A18.419,18.419,0,0,0,947.894,434.911Zm85.163,59.528,8.45,54.4a18.422,18.422,0,0,0,21.028,15.37h.008a18.428,18.428,0,0,0,15.378-21.028l-8.458-54.4a18.422,18.422,0,0,0-21.028-15.378h-.009A18.426,18.426,0,0,0,1033.057,494.439Zm90.351,143.556,8.836-54.34a18.424,18.424,0,0,0-15.235-21.137h0a18.412,18.412,0,0,0-21.137,15.227l-8.837,54.34a18.424,18.424,0,0,0,15.227,21.138h0A18.428,18.428,0,0,0,1123.409,637.995Zm6.045,37.575-26.048,48.505a18.427,18.427,0,0,0,7.517,24.946h.009a18.417,18.417,0,0,0,24.946-7.508l26.039-48.505a18.42,18.42,0,0,0-7.516-24.946h0A18.417,18.417,0,0,0,1129.454,675.57Zm2.085,103.123-38.811,39.037a18.429,18.429,0,0,0,.076,26.056h.008a18.419,18.419,0,0,0,26.048-.076l38.81-39.038a18.421,18.421,0,0,0-.076-26.056v-.008A18.42,18.42,0,0,0,1131.539,778.693ZM1070.431,936.8l48.807-25.459a18.428,18.428,0,0,0,7.819-24.854l-.008-.008a18.419,18.419,0,0,0-24.854-7.811l-48.816,25.468a18.413,18.413,0,0,0-7.8,24.846v.008A18.419,18.419,0,0,0,1070.431,936.8Zm-29.26,27.351-54.508,7.76a18.42,18.42,0,0,0-15.639,20.835v.008a18.419,18.419,0,0,0,20.835,15.639l54.509-7.76a18.426,18.426,0,0,0,15.639-20.835v-.008A18.42,18.42,0,0,0,1041.171,964.153Zm-82.448,63.236-54.45-8.147a18.424,18.424,0,0,0-20.944,15.5h0a18.42,18.42,0,0,0,15.5,20.944l54.45,8.147a18.425,18.425,0,0,0,20.944-15.5v-.008A18.417,18.417,0,0,0,958.723,1027.389Zm-164.029,42.334,49.438,24.232a18.423,18.423,0,0,0,24.643-8.433l.009-.009a18.409,18.409,0,0,0-8.433-24.644l-49.43-24.239a18.43,18.43,0,0,0-24.652,8.433l-.008.008A18.433,18.433,0,0,0,794.694,1069.723Zm-37.575-6.962-38.533-39.315a18.43,18.43,0,0,0-26.056-.261v.008a18.419,18.419,0,0,0-.26,26.048l38.542,39.316a18.419,18.419,0,0,0,26.048.26h0A18.421,18.421,0,0,0,757.119,1062.761ZM599.3,999.9l24.836,49.127a18.419,18.419,0,0,0,24.753,8.122h.009a18.419,18.419,0,0,0,8.122-24.753l-24.837-49.127a18.422,18.422,0,0,0-24.753-8.131l-.008.009A18.419,18.419,0,0,0,599.3,999.9ZM527,924.124l8.458,54.4a18.416,18.416,0,0,0,21.028,15.37h.008a18.411,18.411,0,0,0,15.37-21.028l-8.45-54.4a18.431,18.431,0,0,0-21.036-15.378v.009A18.412,18.412,0,0,0,527,924.124Zm-17.951-34.565,8.837-54.34a18.425,18.425,0,0,0-15.227-21.138h-.009a18.412,18.412,0,0,0-21.138,15.227l-8.837,54.332a18.428,18.428,0,0,0,15.235,21.146h0A18.424,18.424,0,0,0,509.044,889.559ZM466.761,726.521l-26.048,48.505a18.43,18.43,0,0,0,7.517,24.946h.009a18.412,18.412,0,0,0,24.946-7.516l26.039-48.5a18.418,18.418,0,0,0-7.516-24.946l-.008-.008A18.418,18.418,0,0,0,466.761,726.521Zm19.481-103.7-38.811,39.046a18.419,18.419,0,0,0,.076,26.048v.008a18.428,18.428,0,0,0,26.056-.075L512.374,648.8a18.429,18.429,0,0,0-.075-26.056h-.009A18.418,18.418,0,0,0,486.242,622.819Zm16.479-34.186,48.808-25.467a18.419,18.419,0,0,0,7.811-24.854h0a18.429,18.429,0,0,0-24.854-7.82L485.67,555.959a18.433,18.433,0,0,0-7.811,24.854l.008.008A18.433,18.433,0,0,0,502.721,588.632Zm109.614-130.1L557.827,466.3a18.42,18.42,0,0,0-15.639,20.835h0a18.427,18.427,0,0,0,20.843,15.638l54.5-7.76a18.414,18.414,0,0,0,15.639-20.835v-.008A18.425,18.425,0,0,0,612.335,458.529Zm33.522-17.665,54.3,9.106a18.419,18.419,0,0,0,21.2-15.126v-.009a18.422,18.422,0,0,0-15.117-21.213l-54.3-9.1a18.421,18.421,0,0,0-21.213,15.126v.008A18.413,18.413,0,0,0,645.857,440.864Zm96.926-33.547,49.43,24.232a18.418,18.418,0,0,0,24.652-8.433h0a18.419,18.419,0,0,0-8.425-24.652L759,374.231a18.421,18.421,0,0,0-24.652,8.433v.009A18.409,18.409,0,0,0,742.783,407.316Z" transform="translate(-438.52 -372.345)" fill="#71c305"/>
      <path id="Path_23" data-name="Path 23" d="M556.97,477.773l63.219-5.339A18.423,18.423,0,0,0,637,452.524v-.009a18.413,18.413,0,0,0-19.9-16.8l-54.853,4.633a18.423,18.423,0,0,0-16.807,19.91l.706,8.374a10.013,10.013,0,0,0,10.83,9.139M653.9,423.45l51.507,19.439a18.43,18.43,0,0,0,23.744-10.729h0a18.427,18.427,0,0,0-10.728-23.744L666.92,388.977a18.423,18.423,0,0,0-23.744,10.729h0A18.43,18.43,0,0,0,653.9,423.45Zm169.369,3.456L784.731,387.59a18.419,18.419,0,0,0-26.048-.261l-.008.009a18.411,18.411,0,0,0-.252,26.047L796.956,452.7a18.42,18.42,0,0,0,26.048.26l.008-.009A18.419,18.419,0,0,0,823.273,426.905Zm32.353,18.977,21.709,50.59a18.436,18.436,0,0,0,24.206,9.661h0a18.429,18.429,0,0,0,9.661-24.2l-21.718-50.59a18.429,18.429,0,0,0-24.2-9.66h0A18.421,18.421,0,0,0,855.627,445.882ZM967.595,571.437l3.43-54.937a18.435,18.435,0,0,0-17.245-19.54h0a18.435,18.435,0,0,0-19.54,17.244l-3.422,54.937a18.424,18.424,0,0,0,17.245,19.54h0A18.432,18.432,0,0,0,967.595,571.437Zm7.609,39.046L951.67,660.249a18.43,18.43,0,0,0,8.787,24.535h0a18.411,18.411,0,0,0,24.526-8.778l23.534-49.766a18.424,18.424,0,0,0-8.786-24.534h0A18.419,18.419,0,0,0,975.2,610.483ZM973.757,713.2l-40.484,37.3a18.423,18.423,0,0,0-1.059,26.039h0a18.42,18.42,0,0,0,26.03,1.059l40.484-37.3A18.42,18.42,0,0,0,999.8,714.27l-.009-.008A18.421,18.421,0,0,0,973.757,713.2Zm-41.694,95.337-52.827,15.479a18.424,18.424,0,0,0-12.5,22.861v.008a18.419,18.419,0,0,0,22.861,12.494L942.421,843.9a18.42,18.42,0,0,0,12.5-22.861h0A18.43,18.43,0,0,0,932.063,808.539Zm-76.521,70.054-54.449-8.138a18.42,18.42,0,0,0-20.944,15.487v.008a18.42,18.42,0,0,0,15.487,20.944l54.449,8.147a18.42,18.42,0,0,0,20.944-15.5v-.008A18.421,18.421,0,0,0,855.542,878.593ZM690.26,912.57l47.521,27.779a18.429,18.429,0,0,0,25.207-6.6v-.008a18.413,18.413,0,0,0-6.609-25.2L708.85,880.755a18.432,18.432,0,0,0-25.2,6.608v.009A18.415,18.415,0,0,0,690.26,912.57Zm-98.868-39.391,30.479,45.849a18.423,18.423,0,0,0,25.543,5.145v-.008a18.419,18.419,0,0,0,5.146-25.535l-30.478-45.848a18.414,18.414,0,0,0-25.544-5.137h-.008A18.421,18.421,0,0,0,591.392,873.179Zm-72.266-74.216,8.45,54.4a18.426,18.426,0,0,0,21.036,15.378h0A18.426,18.426,0,0,0,563.991,847.7l-8.45-54.4a18.425,18.425,0,0,0-21.036-15.37h0A18.412,18.412,0,0,0,519.126,798.963Zm-16.749-30.849,13.015-53.491a18.427,18.427,0,0,0-13.545-22.256h-.009a18.42,18.42,0,0,0-22.255,13.545L466.577,759.4a18.42,18.42,0,0,0,13.545,22.255h0A18.421,18.421,0,0,0,502.378,768.114ZM487.689,595.685,452.41,637.951a18.425,18.425,0,0,0,2.346,25.947v.008a18.425,18.425,0,0,0,25.947-2.346L515.982,619.3a18.435,18.435,0,0,0-2.346-25.955h0A18.424,18.424,0,0,0,487.689,595.685Zm14.571-35.792,48.808-25.459a18.421,18.421,0,0,0,7.811-24.854v-.009a18.416,18.416,0,0,0-24.854-7.811L485.217,527.22a18.418,18.418,0,0,0-7.811,24.854v.008A18.418,18.418,0,0,0,502.26,559.893Z" transform="translate(-367.298 -300.346)" fill="#71c305"/>
      <path id="Path_24" data-name="Path 24" d="M804.879,517.12,794.8,454.481a18.427,18.427,0,0,0-21.112-15.269h-.008a18.429,18.429,0,0,0-15.26,21.121l8.744,54.349a18.414,18.414,0,0,0,21.112,15.26l8.3-1.329a10.037,10.037,0,0,0,8.307-11.493m16.866,95.312,24.887-49.111a18.42,18.42,0,0,0-8.113-24.761h0a18.425,18.425,0,0,0-24.761,8.105l-24.879,49.111a18.427,18.427,0,0,0,8.105,24.761h0A18.425,18.425,0,0,0,821.745,612.432ZM778.529,706.87l48.808-25.459a18.417,18.417,0,0,0,7.811-24.854h0a18.429,18.429,0,0,0-24.854-7.819L761.486,674.2a18.417,18.417,0,0,0-7.812,24.854h0A18.42,18.42,0,0,0,778.529,706.87Zm-32.572,22.213L691.5,721a18.418,18.418,0,0,0-20.927,15.521h0a18.43,18.43,0,0,0,15.521,20.927l54.458,8.08a18.421,18.421,0,0,0,20.919-15.521h0A18.413,18.413,0,0,0,745.957,729.083Zm-98.128,27.242L608.252,718.06a18.42,18.42,0,0,0-26.047.437v.009a18.42,18.42,0,0,0,.437,26.047l39.576,38.265a18.431,18.431,0,0,0,26.056-.437v-.008A18.422,18.422,0,0,0,647.828,756.324ZM549.38,719.136l-8.744-54.349a18.425,18.425,0,0,0-21.12-15.26h0a18.427,18.427,0,0,0-15.261,21.112L513,725a18.428,18.428,0,0,0,21.112,15.261h0A18.425,18.425,0,0,0,549.38,719.136Zm-55.921-86.476,24.879-49.1a18.425,18.425,0,0,0-8.105-24.761h0a18.417,18.417,0,0,0-24.761,8.105l-24.887,49.111a18.423,18.423,0,0,0,8.113,24.761h0A18.423,18.423,0,0,0,493.459,632.661ZM498.622,531l48.8-25.459a18.438,18.438,0,0,0,7.819-24.862h-.009a18.409,18.409,0,0,0-24.845-7.811l-48.816,25.459a18.428,18.428,0,0,0-7.811,24.862h0A18.428,18.428,0,0,0,498.622,531ZM622.815,422.288l-54.45-8.08a18.426,18.426,0,0,0-20.927,15.521v.009a18.417,18.417,0,0,0,15.521,20.927l54.449,8.08a18.425,18.425,0,0,0,20.927-15.521h0A18.427,18.427,0,0,0,622.815,422.288Zm103.45,12.9-39.576-38.264a18.43,18.43,0,0,0-26.048.437l-.008.008a18.421,18.421,0,0,0,.446,26.048l39.576,38.264a18.421,18.421,0,0,0,26.048-.437h.008A18.431,18.431,0,0,0,726.265,435.185Z" transform="translate(-289.83 -228.626)" fill="#71c305"/>
    </g>
  </g>
</svg>
