<svg xmlns="http://www.w3.org/2000/svg" width="21.902" height="21" viewBox="0 0 21.902 21">
  <path id="Mask" d="M19.347,21H2.554A2.537,2.537,0,0,1,0,18.486V2.514A2.537,2.537,0,0,1,2.554,0H19.347A2.538,2.538,0,0,1,21.9,2.514V18.486A2.538,2.538,0,0,1,19.347,21ZM14.72,15.521a.913.913,0,1,0,.913.913A.914.914,0,0,0,14.72,15.521Zm-3.768,0a.913.913,0,1,0,.913.913A.914.914,0,0,0,10.951,15.521Zm-3.769,0a.913.913,0,1,0,.913.913A.914.914,0,0,0,7.182,15.521Zm-3.76,0a.913.913,0,1,0,.913.913A.914.914,0,0,0,3.422,15.521Zm11.289-3.56a1.278,1.278,0,1,0,1.278,1.278A1.279,1.279,0,0,0,14.711,11.961Zm3.769.365a.913.913,0,1,0,.913.913A.914.914,0,0,0,18.48,12.326Zm-7.528,0a.913.913,0,1,0,.913.913A.914.914,0,0,0,10.951,12.326Zm-3.769,0a.913.913,0,1,0,.913.913A.914.914,0,0,0,7.182,12.326Zm-3.76,0a.913.913,0,1,0,.913.913A.914.914,0,0,0,3.422,12.326ZM18.48,9.13a.913.913,0,1,0,.913.913A.914.914,0,0,0,18.48,9.13Zm-3.76,0a.913.913,0,1,0,.913.913A.913.913,0,0,0,14.72,9.13Zm-3.769,0a.914.914,0,1,0,.913.914A.915.915,0,0,0,10.95,9.13Zm-3.768,0a.914.914,0,1,0,.913.914A.915.915,0,0,0,7.182,9.13Zm-3.76,0a.914.914,0,1,0,.913.914A.915.915,0,0,0,3.422,9.13ZM2.554,1.37A1.151,1.151,0,0,0,1.4,2.514V6.391H20.5V2.514A1.152,1.152,0,0,0,19.347,1.37Z" fill="#67b500"/>
</svg>
