<svg xmlns="http://www.w3.org/2000/svg" width="16.166" height="18.475" viewBox="0 0 16.166 18.475">
  <path id="calendar-alt" d="M5.341,10.392H3.9a.434.434,0,0,1-.433-.433V8.516A.434.434,0,0,1,3.9,8.083H5.341a.434.434,0,0,1,.433.433V9.959A.434.434,0,0,1,5.341,10.392Zm3.9-.433V8.516A.434.434,0,0,0,8.8,8.083H7.361a.434.434,0,0,0-.433.433V9.959a.434.434,0,0,0,.433.433H8.8A.434.434,0,0,0,9.238,9.959Zm3.464,0V8.516a.434.434,0,0,0-.433-.433H10.825a.434.434,0,0,0-.433.433V9.959a.434.434,0,0,0,.433.433h1.443A.434.434,0,0,0,12.7,9.959ZM9.238,13.424V11.98a.434.434,0,0,0-.433-.433H7.361a.434.434,0,0,0-.433.433v1.443a.434.434,0,0,0,.433.433H8.8A.434.434,0,0,0,9.238,13.424Zm-3.464,0V11.98a.434.434,0,0,0-.433-.433H3.9a.434.434,0,0,0-.433.433v1.443a.434.434,0,0,0,.433.433H5.341A.434.434,0,0,0,5.774,13.424Zm6.928,0V11.98a.434.434,0,0,0-.433-.433H10.825a.434.434,0,0,0-.433.433v1.443a.434.434,0,0,0,.433.433h1.443A.434.434,0,0,0,12.7,13.424Zm3.464-9.382v12.7a1.733,1.733,0,0,1-1.732,1.732H1.732A1.733,1.733,0,0,1,0,16.743V4.042A1.733,1.733,0,0,1,1.732,2.309H3.464V.433A.434.434,0,0,1,3.9,0H5.341a.434.434,0,0,1,.433.433V2.309h4.619V.433A.434.434,0,0,1,10.825,0h1.443A.434.434,0,0,1,12.7.433V2.309h1.732A1.733,1.733,0,0,1,16.166,4.042ZM14.434,16.527V5.774H1.732V16.527a.217.217,0,0,0,.217.217H14.217A.217.217,0,0,0,14.434,16.527Z" fill="#67b500"/>
</svg>
