<svg xmlns="http://www.w3.org/2000/svg" width="20.018" height="20" viewBox="0 0 20.018 20">
  <path id="Icon" d="M8.334,20a.834.834,0,0,1-.662-1.34l1.5-1.994h2.418L8.974,19.7l0,0A.835.835,0,0,1,8.334,20ZM5.786,15a.842.842,0,0,1-.71-.4.834.834,0,0,1,.709-1.271h.026l.02,0,4.48-.345-2.3-2.878a2.079,2.079,0,0,1,.43-3.1l3.58-2.845L10.784,2.845l-4.009.482a.781.781,0,0,1-.11.007A.834.834,0,0,1,6.5,1.683L10.672.85a.849.849,0,0,1,.119-.015h.045a.849.849,0,0,1,.5.168l3.487,2.633a2.072,2.072,0,0,1,.926,1.2,1.759,1.759,0,0,1,.057.253l.669,3.026,2.7.22h.008a.833.833,0,1,1,0,1.667H15.836a.828.828,0,0,1-.7-.384l-.007-.01a.806.806,0,0,1-.095-.215L14.272,7.66l-2.6,2.059,1.546,3.434-.01.01a1.3,1.3,0,0,1-.112,1.241,1.265,1.265,0,0,1-1.058.6H5.786Zm-.129-4.169H1.667L.833,10h4.39a3.711,3.711,0,0,0,.432.832Zm-.615-2.5H0V7.5H5.232a3.763,3.763,0,0,0-.191.833Zm1.364-2.5H1.667L2.5,5H7.455l-1.05.833ZM17.919,4.167A2.084,2.084,0,1,1,20,2.084,2.086,2.086,0,0,1,17.919,4.167Z" fill="#bebebe"/>
</svg>
