<svg id="Icon_Tab_Bar_Flame" data-name="Icon – Tab Bar / Flame" xmlns="http://www.w3.org/2000/svg" width="15.255" height="20.34" viewBox="0 0 15.255 20.34">
  <path id="Icon" d="M6.1,0a.773.773,0,0,0-.763.783C5.339,4.74,0,7.823,0,13.3c0,4.16,4.4,6.85,5.944,7.024a.787.787,0,0,0,.159.016.77.77,0,0,0,.761-.783.8.8,0,0,0-.281-.607v0a5.922,5.922,0,0,1-2.008-3.781,3.832,3.832,0,0,1,2.288-3.434C5.559,15.52,9.835,15.978,10.7,19.728h0a.767.767,0,0,0,.742.613.744.744,0,0,0,.447-.15c.014-.011.027-.02.041-.033A8.364,8.364,0,0,0,15.255,13.3a20.322,20.322,0,0,0-1.576-6.538s0,0,0-.005a0,0,0,0,0,0,0,.761.761,0,0,0-.708-.5.77.77,0,0,0-.751.64v0a4.7,4.7,0,0,1-1.537,2.484c0-3.685-2.6-7.491-3.963-9.068C6.694.291,6.673.264,6.65.238A.752.752,0,0,0,6.1,0" transform="translate(0 0)" fill="#fff"/>
</svg>
