<svg xmlns="http://www.w3.org/2000/svg" width="16.166" height="16.166" viewBox="0 0 16.166 16.166">
  <path id="globe-americas" d="M8.083,8a8.083,8.083,0,1,0,8.083,8.083A8.083,8.083,0,0,0,8.083,8Zm2.682,11.655-.369.368a.779.779,0,0,0-.2.349c-.049.184-.089.371-.155.55l-.567,1.527a6.514,6.514,0,0,1-1.39.153v-.892a2.44,2.44,0,0,0-.738-1.67A1.043,1.043,0,0,1,7.04,19.3V18.258a1.04,1.04,0,0,0-.536-.912c-.468-.259-1.135-.621-1.591-.851a4.7,4.7,0,0,1-1.032-.709l-.026-.023a3.741,3.741,0,0,1-.589-.676c-.306-.449-.8-1.187-1.127-1.667A6.554,6.554,0,0,1,5.5,10.1l.783.391a.521.521,0,0,0,.755-.466V9.656a6.514,6.514,0,0,1,.795-.079l.922.922a.521.521,0,0,1,0,.738L8.6,11.39l-.337.337a.261.261,0,0,0,0,.369l.153.153a.261.261,0,0,1,0,.369l-.261.261a.261.261,0,0,1-.184.076H7.682a.261.261,0,0,0-.182.074l-.323.315a.261.261,0,0,0-.051.3l.508,1.017a.261.261,0,0,1-.233.377H7.217a.26.26,0,0,1-.171-.064l-.3-.263a.522.522,0,0,0-.507-.1l-1.016.339a.39.39,0,0,0-.051.718l.361.181a2.207,2.207,0,0,0,.988.233c.343,0,.736.889,1.043,1.043H9.737a1.044,1.044,0,0,1,.738.305l.446.446a.994.994,0,0,1,.291.7,1.517,1.517,0,0,1-.447,1.075Zm2.826-2.977a.782.782,0,0,1-.461-.325l-.586-.879a.781.781,0,0,1,0-.868l.638-.958a.781.781,0,0,1,.3-.266l.423-.212a6.314,6.314,0,0,1,.636,3.744Z" transform="translate(0 -8)" fill="#67b500"/>
</svg>
