<svg xmlns="http://www.w3.org/2000/svg" xmlns:xlink="http://www.w3.org/1999/xlink" width="13" height="8.5" viewBox="0 0 13 8.5">
  <defs>
    <clipPath id="clip-path">
      <path id="Icon" d="M6.5,8.5a7.032,7.032,0,0,1-4.833-2A8.508,8.508,0,0,1,.072,4.484a.417.417,0,0,1,.022-.5A10.621,10.621,0,0,1,1.886,1.949,7.135,7.135,0,0,1,6.5,0a7.152,7.152,0,0,1,4.635,1.966,10.459,10.459,0,0,1,1.771,2.02.419.419,0,0,1,.023.5.037.037,0,0,1,0,.008C12.838,4.654,10.739,8.5,6.5,8.5Zm0-7.224A3.008,3.008,0,0,0,3.467,4.25a3.034,3.034,0,0,0,6.067,0A3.008,3.008,0,0,0,6.5,1.275Zm0,4.25A1.275,1.275,0,1,1,7.8,4.25,1.289,1.289,0,0,1,6.5,5.525Z" transform="translate(0.5)" fill="none"/>
    </clipPath>
  </defs>
  <g id="Glyph" transform="translate(-0.5)" clip-path="url(#clip-path)">
    <g id="_Glyph_Fill" data-name="• Glyph Fill" transform="translate(-3 -6)">
      <rect id="Rectangle" width="20" height="20" fill="#fff"/>
    </g>
  </g>
</svg>
