<svg id="Icon_Tab_Bar_Home" data-name="Icon – Tab Bar / Home" xmlns="http://www.w3.org/2000/svg" width="16.001" height="15.37" viewBox="0 0 16.001 15.37">
  <path id="Icon" d="M13.529,15.37H2.478a.668.668,0,0,1-.666-.669V7.432H.665c-.354,0-.584-.092-.647-.258s.049-.393.319-.632L7.5.186A.775.775,0,0,1,8.5.186l3.834,3.4v-.11a.928.928,0,1,1,1.857,0V5.237l1.471,1.306c.269.239.382.463.318.632s-.293.259-.647.259H14.195V14.7A.676.676,0,0,1,13.529,15.37ZM9.861,8.959v4.488h2.477V8.959Z" transform="translate(0 0)" fill="#67b500"/>
</svg>
