<svg xmlns="http://www.w3.org/2000/svg" width="14.849" height="14.478" viewBox="0 0 14.849 14.478">
  <g id="Icon_Tab_Bar_Add_Number" data-name="Icon – Tab Bar / Add Number" transform="translate(0 0)">
    <path id="Icon" d="M8.424,13.227A19.359,19.359,0,0,1,4.4,10.075,20.037,20.037,0,0,1,1.157,5.847,7.935,7.935,0,0,1,0,2.264C0,1.435.2,1.2.41,1S1.545.237,1.7.13A.842.842,0,0,1,2.847.361C3.226.909,3.94,2.008,4.432,2.738c.773,1.034.158,1.488-.041,1.76-.366.5-.577.625-.577,1.239S5.527,8.1,5.936,8.528a10.546,10.546,0,0,0,2.641,2.008,2.2,2.2,0,0,0,1.4-.628c.771-.594,1.206-.144,1.562.052s1.959,1.2,2.457,1.536a1.06,1.06,0,0,1,.438.861s-.965,1.536-1.082,1.721c-.147.215-.5.4-1.287.4S10.429,14.333,8.424,13.227Zm3.1-8.335V3.324H9.957a.585.585,0,0,1,0-1.17h1.569V.585a.585.585,0,1,1,1.17,0V2.154h1.569a.585.585,0,1,1,0,1.17H12.7V4.892a.585.585,0,1,1-1.17,0Z" fill="#67b500"/>
  </g>
</svg>
