<svg id="Icon_Tab_Bar_Trend" data-name="Icon – Tab Bar / Trend" xmlns="http://www.w3.org/2000/svg" xmlns:xlink="http://www.w3.org/1999/xlink" width="11.507" height="21.244" viewBox="0 0 11.507 21.244">
  <defs>
    <clipPath id="clip-path">
      <path id="Icon" d="M3.289,0a.822.822,0,0,0-.81.675h0L.029,11.22A.873.873,0,0,0,0,11.439H0a.817.817,0,0,0,.822.816H5.343L4.126,20.263a.735.735,0,0,0-.016.162h0a.821.821,0,0,0,.821.818h0a.821.821,0,0,0,.726-.438h0l5.69-10.52a.915.915,0,0,0,.161-.482h0a.819.819,0,0,0-.823-.816H6.163L8.969,1.152A.825.825,0,0,0,9.041.816h0A.818.818,0,0,0,8.218,0H3.289Z" fill="#67b500"/>
    </clipPath>
  </defs>
  <g id="Muted" transform="translate(0 0)">
    <path id="Icon-2" data-name="Icon" d="M3.289,0a.822.822,0,0,0-.81.675h0L.029,11.22A.873.873,0,0,0,0,11.439H0a.817.817,0,0,0,.822.816H5.343L4.126,20.263a.735.735,0,0,0-.016.162h0a.821.821,0,0,0,.821.818h0a.821.821,0,0,0,.726-.438h0l5.69-10.52a.915.915,0,0,0,.161-.482h0a.819.819,0,0,0-.823-.816H6.163L8.969,1.152A.825.825,0,0,0,9.041.816h0A.818.818,0,0,0,8.218,0H3.289Z" fill="#67b500"/>
  </g>
</svg>
