<svg xmlns="http://www.w3.org/2000/svg" width="17.001" height="17.002" viewBox="0 0 17.001 17.002">
  <path id="Icon" d="M12.551,17H2.828a3.215,3.215,0,0,1-1.7-.294A2,2,0,0,1,.3,15.873a3.213,3.213,0,0,1-.3-1.7V4.449a3.213,3.213,0,0,1,.3-1.7,2,2,0,0,1,.833-.834,3.213,3.213,0,0,1,1.7-.3h9.723c.234,0,.438.006.622.018L4.632,10.165a4.784,4.784,0,0,1,1.274.93,4.762,4.762,0,0,1,.929,1.274l8.526-8.54c.014.182.02.385.02.62v9.724a3.213,3.213,0,0,1-.3,1.7,2,2,0,0,1-.834.834A3.211,3.211,0,0,1,12.551,17ZM3.77,11.026h0l-.228.228a1.28,1.28,0,0,0-.3.559l-.487,2.43,2.431-.485a1.272,1.272,0,0,0,.558-.3l.229-.229-.006-.018c0-.012-.008-.025-.012-.037a3.34,3.34,0,0,0-.832-1.3,3.342,3.342,0,0,0-1.3-.832l-.055-.017Zm11.591-7.2v0a2.407,2.407,0,0,0-.276-1.077,2,2,0,0,0-.834-.834,2.412,2.412,0,0,0-1.078-.277L14.367.447a1.546,1.546,0,0,1,2.181.005,1.544,1.544,0,0,1,.006,2.181L15.362,3.826Z" transform="translate(0 0)" fill="#67b500"/>
</svg>
