<svg id="Icon_Tab_Bar_Tasks" data-name="Icon – Tab Bar / Tasks" xmlns="http://www.w3.org/2000/svg" width="15.166" height="15.166" viewBox="0 0 15.166 15.166">
  <g id="Muted">
    <path id="Icon" d="M13.847,15.166H1.319A1.32,1.32,0,0,1,0,13.847V1.319A1.32,1.32,0,0,1,1.319,0H13.847a1.32,1.32,0,0,1,1.319,1.319V13.847A1.321,1.321,0,0,1,13.847,15.166ZM2.8,10.682a.824.824,0,1,0,.824.824A.825.825,0,0,0,2.8,10.682Zm3.033.4a.561.561,0,0,0,0,1.121h6.792a.561.561,0,0,0,0-1.121ZM2.8,6.726a.824.824,0,1,0,.824.824A.825.825,0,0,0,2.8,6.726Zm3.033.4a.561.561,0,0,0,0,1.121h6.792a.561.561,0,0,0,0-1.121ZM2.8,2.77a.824.824,0,1,0,.824.824A.825.825,0,0,0,2.8,2.77Zm3.033.4a.561.561,0,0,0,0,1.121h6.792a.561.561,0,0,0,0-1.121Z" fill="#67b500"/>
  </g>
</svg>
