<svg id="Icon_15px_Block" data-name="Icon – 15px / Block" xmlns="http://www.w3.org/2000/svg" xmlns:xlink="http://www.w3.org/1999/xlink" width="20.514" height="26.109" viewBox="0 0 20.514 26.109">
  <defs>
    <clipPath id="clip-path">
      <path id="Mask" d="M2,26.109a2,2,0,0,1-2-2V10.68a2,2,0,0,1,2-2H3.491V6.5A6.638,6.638,0,0,1,10.257,0a6.638,6.638,0,0,1,6.766,6.5V8.681h1.49a2,2,0,0,1,2,2V24.108a2,2,0,0,1-2,2ZM14.768,8.681V6.5a4.426,4.426,0,0,0-4.511-4.335A4.426,4.426,0,0,0,5.747,6.5V8.681Z" fill="#67b500"/>
    </clipPath>
  </defs>
  <path id="Mask-2" data-name="Mask" d="M5,26.109a5,5,0,0,1-5-5V13.681A5,5,0,0,1,3.491,8.912V6.5A6.638,6.638,0,0,1,10.257,0a6.638,6.638,0,0,1,6.766,6.5v2.41a5,5,0,0,1,3.49,4.768v7.428a5,5,0,0,1-5,5ZM14.768,8.681V6.5a4.426,4.426,0,0,0-4.511-4.335A4.426,4.426,0,0,0,5.747,6.5V8.681Z" fill="#67b500"/>
</svg>
