<svg id="Icon_15px_Reply" data-name="Icon – 15px / Reply" xmlns="http://www.w3.org/2000/svg" xmlns:xlink="http://www.w3.org/1999/xlink" width="15" height="12.383" viewBox="0 0 15 12.383">
  <defs>
    <clipPath id="clip-path">
      <path id="Icon" d="M7.723,3.495a1.754,1.754,0,0,0-.286.015V0L0,5.614l7.436,5.541V7.307a3.011,3.011,0,0,1,.93-.094,6.737,6.737,0,0,1,6.394,5.17A7.064,7.064,0,0,0,15,10.66,7.215,7.215,0,0,0,7.723,3.495" transform="translate(2 4)" fill="#ff4d4d"/>
    </clipPath>
  </defs>
  <path id="Icon-2" data-name="Icon" d="M7.723,3.495a1.754,1.754,0,0,0-.286.015V0L0,5.614l7.436,5.541V7.307a3.011,3.011,0,0,1,.93-.094,6.737,6.737,0,0,1,6.394,5.17A7.064,7.064,0,0,0,15,10.66,7.215,7.215,0,0,0,7.723,3.495" fill="#ff4d4d"/>
</svg>
