<svg xmlns="http://www.w3.org/2000/svg" width="15.166" height="15.166" viewBox="0 0 15.166 15.166">
  <g id="pricing" transform="translate(-149 -198)">
    <path id="Path" d="M1.319,0H13.847a1.319,1.319,0,0,1,1.319,1.319V13.847a1.319,1.319,0,0,1-1.319,1.319H1.319A1.319,1.319,0,0,1,0,13.847V1.319A1.319,1.319,0,0,1,1.319,0Z" transform="translate(149 198)" fill="#67b500"/>
    <path id="Path_134088" data-name="Path 134088" d="M202.8,43.105c-.376-.162-.779-.3-1.181-.432v-2.73a1.421,1.421,0,0,1,.94,1.108.116.116,0,0,0,.107.108h1.181c.053,0,.135-.054.135-.108v-.027a2.611,2.611,0,0,0-2.363-2.216v-.945a.174.174,0,0,0-.161-.162h-.669a.174.174,0,0,0-.161.162v.892a2.394,2.394,0,0,0-2.524,2.351c0,1.594,1.1,2.081,2.524,2.54v2.865a1.6,1.6,0,0,1-1.1-1.324.116.116,0,0,0-.107-.108h-1.154a.179.179,0,0,0-.135.108,2.805,2.805,0,0,0,2.5,2.433v.864a.174.174,0,0,0,.161.162h.669a.174.174,0,0,0,.161-.162v-.811a2.424,2.424,0,0,0,2.524-2.4,2.186,2.186,0,0,0-1.342-2.162Zm-2.148-.757a2.824,2.824,0,0,1-.779-.46,1.056,1.056,0,0,1-.349-.865,1.132,1.132,0,0,1,1.128-1.189Zm.966,4.189V43.946c.7.27,1.128.594,1.128,1.324a1.223,1.223,0,0,1-1.127,1.267Z" transform="translate(-44.541 162.41)" fill="#fff"/>
  </g>
</svg>
