<svg id="Icon_Tab_Bar_Profile" data-name="Icon – Tab Bar / Profile" xmlns="http://www.w3.org/2000/svg" width="14.894" height="14.57" viewBox="0 0 14.894 14.57">
  <path id="Icon" d="M13.666,11.649a8.168,8.168,0,0,0-2.3-.869h0l-.182-.038-.118-.025c-.367-.075-.655-.122-.813-.174-.414-.137-.859-.281-.859-.864s-.008-.659.133-.736A.911.911,0,0,0,9.99,8.38a13.705,13.705,0,0,1,.184-1.4c.085-.122.237-.018.29-.294a4.576,4.576,0,0,1,.1-.621,1.962,1.962,0,0,0,.119-1c-.1-.2-.276-.1-.288-.225a9.213,9.213,0,0,0,.1-2.675,3.427,3.427,0,0,0-.452-.811C9.857.681,8.567.32,8.244.181a2.683,2.683,0,0,0-1.918,0c-.645.328-.819.77-1.091.942a1.567,1.567,0,0,0-.828,1.043,9.186,9.186,0,0,0,.1,2.675c-.012.127-.191.02-.288.225a1.956,1.956,0,0,0,.118,1,4.6,4.6,0,0,1,.1.621c.05.276.2.172.288.294a13.706,13.706,0,0,1,.184,1.4.909.909,0,0,0,.463.562c.141.078.133.154.133.736s-.445.727-.86.864a11.181,11.181,0,0,0-3.423,1.107C-.085,12.4,0,14.57,0,14.57H14.893s.087-2.168-1.227-2.921" transform="translate(0 0)" fill="#67b500"/>
</svg>
