<svg xmlns="http://www.w3.org/2000/svg" width="24" height="24" viewBox="0 0 24 24">
  <g id="Graphics_Navbar_Toolbar_Icons_Accent_Info" data-name="Graphics / Navbar &amp; Toolbar Icons / Accent / Info" transform="translate(0 0)">
    <path id="Information_Icon" data-name="Information Icon" d="M12,24A12,12,0,0,1,3.515,3.515,12,12,0,1,1,20.485,20.485,11.922,11.922,0,0,1,12,24ZM12,1A11,11,0,0,0,4.222,19.778,11,11,0,1,0,19.778,4.222,10.929,10.929,0,0,0,12,1Z" fill="#67b500"/>
    <path id="Information_Icon-2" data-name="Information Icon" d="M7,14H7a7,7,0,1,1,7-7,7,7,0,0,1-7,7Z" transform="translate(5 5)" fill="#67b500"/>
  </g>
</svg>
