<svg xmlns="http://www.w3.org/2000/svg" width="25.773" height="21" viewBox="0 0 25.773 21">
  <path id="Icon" d="M12.887,21A10.155,10.155,0,0,1,5.9,18.205a10.554,10.554,0,0,1-3.275-6.83H0l3.436-5.25,3.436,5.25H4.338a8.782,8.782,0,0,0,2.761,5.6,8.488,8.488,0,0,0,11.367.181.849.849,0,0,1,.858-.184.868.868,0,0,1,.569.679.882.882,0,0,1-.311.834A10.2,10.2,0,0,1,12.887,21Zm9.45-6.125h0L18.9,9.625h2.535a8.782,8.782,0,0,0-2.761-5.6A8.485,8.485,0,0,0,7.308,3.845a.847.847,0,0,1-.58.23.857.857,0,0,1-.278-.047.868.868,0,0,1-.569-.678.883.883,0,0,1,.311-.835,10.152,10.152,0,0,1,13.686.28,10.55,10.55,0,0,1,3.275,6.83h2.621l-3.436,5.249Zm-9.45-1.034A3.341,3.341,0,1,1,16.228,10.5,3.345,3.345,0,0,1,12.887,13.841Z" fill="#67b500"/>
</svg>
